<svg width="149" height="184" viewBox="0 0 149 184" fill="none" xmlns="http://www.w3.org/2000/svg">
<path d="M139.258 69.4118C137.867 68.0216 135.857 68.0215 134.479 69.3994C133.089 70.7896 133.089 72.8005 134.466 74.1783C135.857 75.5685 137.855 75.5561 139.245 74.1907C140.636 72.8005 140.648 70.802 139.258 69.4118Z" fill="#01237A"/>
<path d="M62.8816 26.4758C64.2719 27.866 66.2703 27.8784 67.6606 26.4882C69.0508 25.098 69.0632 23.0995 67.673 21.7093C66.2827 20.319 64.2719 20.319 62.894 21.6968C61.5038 23.0623 61.5162 25.0856 62.8816 26.4758Z" fill="#01237A"/>
<path d="M86.7017 50.296C88.0796 51.6987 90.078 51.7359 91.4931 50.3705C92.9081 48.9803 92.9454 46.9818 91.58 45.5916C90.2022 44.1889 88.1913 44.1393 86.801 45.5047C85.386 46.8701 85.3611 48.9058 86.7017 50.296Z" fill="#01237A"/>
<path d="M115.363 69.3745C113.973 68.0091 111.949 68.0215 110.572 69.4241C109.206 70.8144 109.231 72.8501 110.621 74.2155C112.024 75.5933 114.022 75.5561 115.4 74.1534C116.79 72.7632 116.766 70.7523 115.363 69.3745Z" fill="#01237A"/>
<path d="M139.345 93.3561C137.992 91.9286 135.968 91.8417 134.553 93.1575C133.126 94.5105 133.039 96.5337 134.355 97.9488C135.708 99.3763 137.731 99.4632 139.134 98.135C140.598 96.7696 140.685 94.7711 139.345 93.3561Z" fill="#01237A"/>
<path d="M62.8939 50.3457C64.2966 51.7235 66.295 51.7111 67.6729 50.3084C69.0631 48.9182 69.0507 46.9197 67.6605 45.5295C66.2702 44.1393 64.2593 44.1641 62.8691 45.5543C61.5037 46.9446 61.5161 48.9679 62.8939 50.3457Z" fill="#01237A"/>
<path d="M86.9252 69.2379C85.4481 70.5661 85.3116 72.5894 86.5777 74.0293C87.8934 75.494 89.9291 75.643 91.3566 74.3644C92.8337 73.0363 92.9827 71.0254 91.7042 69.5979C90.376 68.096 88.3527 67.9594 86.9252 69.2379Z" fill="#01237A"/>
<path d="M115.487 93.3561C114.134 91.9286 112.123 91.8293 110.708 93.1699C109.281 94.5229 109.194 96.5462 110.51 97.9613C111.863 99.3887 113.886 99.4756 115.288 98.1475C116.741 96.7696 116.828 94.7712 115.487 93.3561Z" fill="#01237A"/>
<path d="M139.208 117.077C137.818 115.712 135.795 115.749 134.429 117.164C133.064 118.554 133.101 120.577 134.504 121.955C135.906 123.308 137.905 123.271 139.283 121.868C140.648 120.453 140.611 118.455 139.208 117.077Z" fill="#01237A"/>
<path d="M62.8815 74.1906C64.2718 75.5809 66.2578 75.5809 67.6605 74.2031C69.0507 72.8128 69.0631 70.8144 67.6729 69.4241C66.2826 68.0339 64.2718 68.0339 62.8939 69.4117C61.5161 70.7895 61.5037 72.8128 62.8815 74.1906Z" fill="#01237A"/>
<path d="M91.4807 93.2072C90.0781 91.8542 88.0548 91.8914 86.6894 93.3065C85.3364 94.7091 85.3736 96.7324 86.7887 98.0978C88.1913 99.4508 90.1898 99.4136 91.5676 97.9861C92.9454 96.5835 92.9082 94.585 91.4807 93.2072Z" fill="#01237A"/>
<path d="M115.437 117.164C114.06 115.761 112.036 115.724 110.659 117.077C109.256 118.455 109.219 120.478 110.584 121.868C111.962 123.271 113.96 123.308 115.363 121.93C116.766 120.553 116.803 118.554 115.437 117.164Z" fill="#01237A"/>
<path d="M62.7947 97.9612C64.1477 99.3887 66.1709 99.4756 67.5736 98.1474C69.0135 96.782 69.1004 94.7835 67.7722 93.3809C66.4192 91.9534 64.3959 91.8665 62.9809 93.1823C61.5534 94.5104 61.4789 96.5461 62.7947 97.9612Z" fill="#01237A"/>
<path d="M91.5924 117.176C90.227 115.761 88.2037 115.699 86.8011 117.052C85.386 118.417 85.3364 120.453 86.6769 121.843C88.0424 123.258 90.0532 123.308 91.4559 121.955C92.8958 120.59 92.9454 118.579 91.5924 117.176Z" fill="#01237A"/>
<path d="M67.6357 117.077C66.233 115.724 64.2222 115.749 62.8567 117.164C61.5037 118.566 61.541 120.59 62.9436 121.943C64.3463 123.296 66.3447 123.258 67.7226 121.856C69.0756 120.453 69.0507 118.442 67.6357 117.077Z" fill="#01237A"/>
<path d="M134.466 2.63074C135.857 4.02098 137.855 4.00856 139.258 2.60591C140.648 1.21568 140.636 -0.782788 139.245 -2.17302C137.855 -3.56326 135.832 -3.55084 134.466 -2.16061C133.076 -0.770372 133.089 1.25292 134.466 2.63074Z" fill="#01237A"/>
<path d="M110.646 2.66796C112.049 4.02096 114.047 3.98372 115.425 2.58107C116.791 1.19084 116.766 -0.820044 115.338 -2.19787C113.936 -3.55086 111.925 -3.52603 110.559 -2.11097C109.206 -0.73315 109.244 1.29014 110.646 2.66796Z" fill="#01237A"/>
<path d="M139.295 21.734C137.917 20.3314 135.919 20.2942 134.516 21.6472C133.113 23.025 133.064 25.0359 134.429 26.4261C135.807 27.8287 137.805 27.866 139.22 26.5006C140.611 25.1352 140.648 23.1367 139.295 21.734Z" fill="#01237A"/>
<path d="M86.7142 2.59347C88.0921 3.99612 90.0905 4.00853 91.4932 2.6307C92.8958 1.25288 92.9206 -0.757995 91.5552 -2.14823C90.1774 -3.55088 88.1541 -3.5633 86.7639 -2.19789C85.3861 -0.820062 85.3612 1.21564 86.7142 2.59347Z" fill="#01237A"/>
<path d="M110.572 26.4509C111.949 27.8535 113.948 27.866 115.351 26.4881C116.753 25.1103 116.778 23.0994 115.413 21.7092C114.035 20.3065 112.012 20.2941 110.621 21.6595C109.243 23.0374 109.219 25.0731 110.572 26.4509Z" fill="#01237A"/>
<path d="M139.345 45.6412C137.992 44.2137 135.968 44.1269 134.553 45.4426C133.126 46.7956 133.039 48.8189 134.355 50.234C135.695 51.6738 137.731 51.7483 139.134 50.4202C140.598 49.0547 140.673 47.0687 139.345 45.6412Z" fill="#01237A"/>
<path d="M62.8693 2.60594C64.2471 4.00859 66.258 4.00859 67.6482 2.64318C69.0508 1.26536 69.0757 -0.745518 67.6978 -2.12334C66.32 -3.52599 64.2967 -3.5384 62.9065 -2.17299C61.5287 -0.819994 61.5038 1.21571 62.8693 2.60594Z" fill="#01237A"/>
<path d="M86.6522 26.3888C87.9927 27.8287 90.0284 27.9031 91.4311 26.575C92.871 25.2096 92.9579 23.2111 91.6421 21.796C90.2891 20.3686 88.2658 20.2817 86.8508 21.5974C85.4109 22.938 85.3364 24.9737 86.6522 26.3888Z" fill="#01237A"/>
<path d="M115.425 45.5791C114.047 44.1765 112.024 44.1392 110.634 45.5047C109.231 46.8825 109.194 48.9058 110.559 50.296C111.937 51.6987 113.948 51.7235 115.338 50.3581C116.766 48.9803 116.803 46.9818 115.425 45.5791Z" fill="#01237A"/>
</svg>
