<svg width="1443" height="1024" viewBox="0 0 1443 1024" fill="none" xmlns="http://www.w3.org/2000/svg">
<path d="M215.544 934.79C225.807 934.79 234.143 926.473 234.143 916.191C234.143 905.928 225.826 897.593 215.544 897.593C205.281 897.593 196.946 905.91 196.946 916.191C196.946 926.473 205.263 934.79 215.544 934.79ZM215.544 907.47C220.373 907.47 224.283 911.381 224.283 916.21C224.283 921.038 220.373 924.949 215.544 924.949C210.716 924.949 206.805 921.038 206.805 916.21C206.805 911.381 210.716 907.47 215.544 907.47Z" fill="#114A82"/>
<path d="M277.674 934.79C287.937 934.79 296.272 926.473 296.272 916.191C296.272 905.928 287.955 897.593 277.674 897.593C267.411 897.593 259.075 905.91 259.075 916.191C259.075 926.473 267.411 934.79 277.674 934.79ZM277.674 907.47C282.502 907.47 286.413 911.381 286.413 916.21C286.413 921.038 282.502 924.949 277.674 924.949C272.845 924.949 268.935 921.038 268.935 916.21C268.953 911.381 272.845 907.47 277.674 907.47Z" fill="#FFC200"/>
<path d="M898.633 106.69C907.972 102.794 912.385 92.0642 908.489 82.7249C904.593 73.3855 893.864 68.9729 884.524 72.8689C875.185 76.7649 870.772 87.4943 874.668 96.8337C878.564 106.173 889.294 110.586 898.633 106.69Z" fill="#01237A"/>
<path d="M1091.34 58.6045C1074.14 58.6045 1060.19 72.558 1060.19 89.7611C1060.19 106.964 1074.14 120.918 1091.34 120.918C1108.55 120.918 1122.5 106.964 1122.5 89.7611C1122.5 72.558 1108.55 58.6045 1091.34 58.6045ZM1091.34 104.633C1083.14 104.633 1076.49 97.9863 1076.49 89.7795C1076.49 81.5726 1083.14 74.9264 1091.34 74.9264C1099.55 74.9264 1106.2 81.5726 1106.2 89.7795C1106.2 97.9863 1099.55 104.633 1091.34 104.633Z" fill="#01237A"/>
<path d="M1163.06 71.6767C1153.07 71.6767 1144.97 79.7734 1144.97 89.7611C1144.97 99.7488 1153.07 107.846 1163.06 107.846C1173.05 107.846 1181.14 99.7488 1181.14 89.7611C1181.14 79.7734 1173.05 71.6767 1163.06 71.6767ZM1163.06 94.6448C1160.36 94.6448 1158.17 92.46 1158.17 89.7611C1158.17 87.0622 1160.36 84.8774 1163.06 84.8774C1165.76 84.8774 1167.94 87.0622 1167.94 89.7611C1167.94 92.46 1165.76 94.6448 1163.06 94.6448Z" fill="#114A82"/>
<path d="M1022.11 73.733C1013.24 73.733 1006.06 80.9117 1006.06 89.7795C1006.06 98.6473 1013.24 105.826 1022.11 105.826C1030.98 105.826 1038.16 98.6473 1038.16 89.7795C1038.16 80.9117 1030.98 73.733 1022.11 73.733ZM1022.11 97.4172C1017.89 97.4172 1014.45 93.9839 1014.45 89.7611C1014.45 85.5384 1017.89 82.1051 1022.11 82.1051C1026.33 82.1051 1029.77 85.5384 1029.77 89.7611C1029.77 93.9839 1026.33 97.4172 1022.11 97.4172Z" fill="#FFC200"/>
<path d="M1312.01 682.783L1324.57 695.323L1328.26 691.632L1312.01 675.384L1295.78 691.632L1299.47 695.323L1312.01 682.783Z" fill="#01237A"/>
<path d="M1312.01 704.686L1324.57 717.226L1328.26 713.536L1312.01 697.287L1295.78 713.536L1299.47 717.226L1312.01 704.686Z" fill="#01237A"/>
<path d="M1312.01 726.847L1324.57 739.405L1328.26 735.696L1312.01 719.466L1295.78 735.696L1299.47 739.405L1312.01 726.847Z" fill="#01237A"/>
<path d="M1312.01 638.719L1324.57 651.259L1328.26 647.569L1312.01 631.32L1295.78 647.569L1299.47 651.259L1312.01 638.719Z" fill="#01237A"/>
<path d="M1312.01 660.623L1324.57 673.163L1328.26 669.472L1312.01 653.224L1295.78 669.472L1299.47 673.163L1312.01 660.623Z" fill="#01237A"/>
<path d="M119.926 575.617C133.95 575.617 145.318 564.249 145.318 550.225C145.318 536.202 133.95 524.833 119.926 524.833C105.903 524.833 94.5346 536.202 94.5346 550.225C94.5346 564.249 105.903 575.617 119.926 575.617Z" fill="#FFC200"/>
<path d="M242.735 550.17L255.275 537.612L251.584 533.922L235.336 550.17L251.584 566.419L255.275 562.71L242.735 550.17Z" fill="#01237A"/>
<path d="M264.638 550.17L277.178 537.612L273.488 533.922L257.239 550.17L273.488 566.419L277.178 562.71L264.638 550.17Z" fill="#01237A"/>
<path d="M286.799 550.17L299.357 537.612L295.648 533.922L279.418 550.17L295.648 566.419L299.357 562.71L286.799 550.17Z" fill="#01237A"/>
<path d="M198.671 550.17L211.211 537.612L207.521 533.922L191.272 550.17L207.521 566.419L211.211 562.71L198.671 550.17Z" fill="#01237A"/>
<path d="M220.575 550.17L233.114 537.612L229.424 533.922L213.176 550.17L229.424 566.419L233.114 562.71L220.575 550.17Z" fill="#01237A"/>
<path d="M556.706 165.624L526.523 195.66L496.321 165.624L466.137 195.66L435.954 165.624L409.332 192.117L382.692 165.624L352.509 195.66L322.307 165.624L292.123 195.66L261.94 165.624L231.976 195.44L235.318 198.782L261.94 172.288L292.123 202.325L322.307 172.288L352.509 202.325L382.692 172.288L409.332 198.8L435.954 172.288L466.137 202.325L496.321 172.288L526.523 202.325L556.706 172.288L583.346 198.782L586.67 195.44L556.706 165.624Z" fill="#0B315E"/>
<path d="M556.706 111.921L526.523 141.958L496.321 111.921L466.137 141.958L435.954 111.921L412.013 135.752L411.994 142.435L435.954 118.586L466.137 148.623L496.321 118.586L526.523 148.623L556.706 118.586L583.346 145.079L586.67 141.719L556.706 111.921Z" fill="#01237A"/>
<path d="M1173.3 893.058L1143.12 923.094L1112.92 893.058L1082.73 923.094L1052.55 893.058L1022.33 923.15L1025.8 926.344L1052.55 899.704L1082.73 929.741L1112.92 899.704L1143.12 929.741L1173.3 899.704L1199.94 926.197L1203.27 922.856L1173.3 893.058Z" fill="#01237A"/>
<path d="M1260 789.086C1257.81 789.086 1256.05 787.305 1256.05 785.139C1256.05 782.954 1257.83 781.192 1260 781.192C1262.16 781.192 1263.94 782.972 1263.94 785.139C1263.94 787.324 1262.18 789.086 1260 789.086Z" fill="#0B315E"/>
<path d="M1260 822.997C1257.81 822.997 1256.05 821.216 1256.05 819.049C1256.05 816.865 1257.83 815.102 1260 815.102C1262.16 815.102 1263.94 816.883 1263.94 819.049C1263.94 821.216 1262.18 822.997 1260 822.997Z" fill="#0B315E"/>
<path d="M1297.18 822.997C1294.99 822.997 1293.23 821.216 1293.23 819.049C1293.23 816.865 1295.01 815.102 1297.18 815.102C1299.36 815.102 1301.12 816.883 1301.12 819.049C1301.14 821.216 1299.36 822.997 1297.18 822.997Z" fill="#0B315E"/>
<path d="M1260 856.907C1257.81 856.907 1256.05 855.127 1256.05 852.96C1256.05 850.775 1257.83 849.013 1260 849.013C1262.16 849.013 1263.94 850.794 1263.94 852.96C1263.94 855.127 1262.18 856.907 1260 856.907Z" fill="#0B315E"/>
<path d="M1297.18 856.907C1294.99 856.907 1293.23 855.127 1293.23 852.96C1293.23 850.775 1295.01 849.013 1297.18 849.013C1299.36 849.013 1301.12 850.794 1301.12 852.96C1301.14 855.127 1299.36 856.907 1297.18 856.907Z" fill="#0B315E"/>
<path d="M1334.35 856.907C1332.17 856.907 1330.41 855.127 1330.41 852.96C1330.41 850.775 1332.19 849.013 1334.35 849.013C1336.54 849.013 1338.3 850.794 1338.3 852.96C1338.32 855.127 1336.54 856.907 1334.35 856.907Z" fill="#0B315E"/>
<path d="M1260 890.8C1257.81 890.8 1256.05 889.019 1256.05 886.852C1256.05 884.667 1257.83 882.905 1260 882.905C1262.16 882.905 1263.94 884.686 1263.94 886.852C1263.94 889.037 1262.18 890.8 1260 890.8Z" fill="#0B315E"/>
<path d="M1297.18 890.8C1294.99 890.8 1293.23 889.019 1293.23 886.852C1293.23 884.667 1295.01 882.905 1297.18 882.905C1299.36 882.905 1301.12 884.686 1301.12 886.852C1301.14 889.037 1299.36 890.8 1297.18 890.8Z" fill="#0B315E"/>
<path d="M1260 924.71C1262.18 924.71 1263.94 922.943 1263.94 920.763C1263.94 918.583 1262.18 916.815 1260 916.815C1257.82 916.815 1256.05 918.583 1256.05 920.763C1256.05 922.943 1257.82 924.71 1260 924.71Z" fill="#0B315E"/>
<path d="M68.5005 601.339C66.5543 601.339 64.957 599.76 64.957 597.795C64.957 595.849 66.536 594.252 68.5005 594.252C70.465 594.252 72.0439 595.831 72.0439 597.795C72.0439 599.76 70.465 601.339 68.5005 601.339Z" fill="#0B315E"/>
<path d="M101.805 601.339C99.859 601.339 98.2617 599.76 98.2617 597.795C98.2617 595.849 99.8407 594.252 101.805 594.252C103.77 594.252 105.349 595.831 105.349 597.795C105.349 599.76 103.751 601.339 101.805 601.339Z" fill="#0B315E"/>
<path d="M135.091 601.339C133.145 601.339 131.548 599.76 131.548 597.795C131.548 595.849 133.127 594.252 135.091 594.252C137.038 594.252 138.635 595.831 138.635 597.795C138.635 599.76 137.056 601.339 135.091 601.339Z" fill="#0B315E"/>
<path d="M168.396 601.339C166.45 601.339 164.853 599.76 164.853 597.795C164.853 595.849 166.432 594.252 168.396 594.252C170.342 594.252 171.94 595.831 171.94 597.795C171.94 599.76 170.342 601.339 168.396 601.339Z" fill="#0B315E"/>
<path d="M201.701 601.339C199.755 601.339 198.157 599.76 198.157 597.795C198.157 595.849 199.736 594.252 201.701 594.252C203.647 594.252 205.244 595.831 205.244 597.795C205.226 599.76 203.647 601.339 201.701 601.339Z" fill="#0B315E"/>
<path d="M234.987 601.339C233.041 601.339 231.444 599.76 231.444 597.795C231.444 595.849 233.023 594.252 234.987 594.252C236.933 594.252 238.531 595.831 238.531 597.795C238.531 599.76 236.933 601.339 234.987 601.339Z" fill="#0B315E"/>
<path d="M268.292 601.339C266.346 601.339 264.748 599.76 264.748 597.795C264.748 595.849 266.327 594.252 268.292 594.252C270.238 594.252 271.835 595.831 271.835 597.795C271.817 599.76 270.238 601.339 268.292 601.339Z" fill="#0B315E"/>
<path d="M301.578 601.339C299.632 601.339 298.035 599.76 298.035 597.795C298.035 595.849 299.614 594.252 301.578 594.252C303.524 594.252 305.122 595.831 305.122 597.795C305.122 599.76 303.543 601.339 301.578 601.339Z" fill="#0B315E"/>
<path d="M737.257 928.052C735.31 928.052 733.713 926.473 733.713 924.508C733.713 922.562 735.292 920.965 737.257 920.965C739.203 920.965 740.8 922.544 740.8 924.508C740.8 926.473 739.221 928.052 737.257 928.052Z" fill="#0B315E"/>
<path d="M670.464 928.052C668.517 928.052 666.92 926.473 666.92 924.508C666.92 922.562 668.499 920.965 670.464 920.965C672.428 920.965 674.007 922.544 674.007 924.508C674.007 926.473 672.41 928.052 670.464 928.052Z" fill="#0B315E"/>
<path d="M770.561 928.052C768.615 928.052 767.018 926.473 767.018 924.508C767.018 922.562 768.597 920.965 770.561 920.965C772.507 920.965 774.105 922.544 774.105 924.508C774.105 926.473 772.507 928.052 770.561 928.052Z" fill="#0B315E"/>
<path d="M803.866 928.052C801.92 928.052 800.323 926.473 800.323 924.508C800.323 922.562 801.901 920.965 803.866 920.965C805.812 920.965 807.409 922.544 807.409 924.508C807.391 926.473 805.812 928.052 803.866 928.052Z" fill="#0B315E"/>
<path d="M837.152 928.052C835.206 928.052 833.609 926.473 833.609 924.508C833.609 922.562 835.188 920.965 837.152 920.965C839.098 920.965 840.696 922.544 840.696 924.508C840.696 926.473 839.098 928.052 837.152 928.052Z" fill="#0B315E"/>
<path d="M937.048 928.052C935.102 928.052 933.505 926.473 933.505 924.508C933.505 922.562 935.083 920.965 937.048 920.965C938.994 920.965 940.591 922.544 940.591 924.508C940.591 926.473 938.994 928.052 937.048 928.052Z" fill="#0B315E"/>
<path d="M1188.32 193.145C1186.37 193.145 1184.78 191.566 1184.78 189.602C1184.78 187.656 1186.36 186.058 1188.32 186.058C1190.28 186.058 1191.86 187.637 1191.86 189.602C1191.86 191.548 1190.27 193.145 1188.32 193.145Z" fill="#0B315E"/>
<path d="M1221.63 193.145C1219.68 193.145 1218.08 191.566 1218.08 189.602C1218.08 187.656 1219.66 186.058 1221.63 186.058C1223.57 186.058 1225.17 187.637 1225.17 189.602C1225.15 191.548 1223.57 193.145 1221.63 193.145Z" fill="#0B315E"/>
<path d="M1254.91 193.145C1252.97 193.145 1251.37 191.566 1251.37 189.602C1251.37 187.656 1252.95 186.058 1254.91 186.058C1256.86 186.058 1258.45 187.637 1258.45 189.602C1258.45 191.548 1256.88 193.145 1254.91 193.145Z" fill="#0B315E"/>
<path d="M1288.22 193.145C1286.27 193.145 1284.67 191.566 1284.67 189.602C1284.67 187.656 1286.25 186.058 1288.22 186.058C1290.16 186.058 1291.76 187.637 1291.76 189.602C1291.76 191.548 1290.16 193.145 1288.22 193.145Z" fill="#0B315E"/>
<path d="M1321.5 193.145C1319.56 193.145 1317.96 191.566 1317.96 189.602C1317.96 187.656 1319.54 186.058 1321.5 186.058C1323.45 186.058 1325.05 187.637 1325.05 189.602C1325.05 191.548 1323.47 193.145 1321.5 193.145Z" fill="#0B315E"/>
<path d="M1354.81 193.145C1352.86 193.145 1351.26 191.566 1351.26 189.602C1351.26 187.656 1352.84 186.058 1354.81 186.058C1356.77 186.058 1358.35 187.637 1358.35 189.602C1358.35 191.548 1356.75 193.145 1354.81 193.145Z" fill="#0B315E"/>
<path d="M1188.32 223.512C1186.37 223.512 1184.78 221.933 1184.78 219.969C1184.78 218.023 1186.36 216.425 1188.32 216.425C1190.28 216.425 1191.86 218.004 1191.86 219.969C1191.86 221.915 1190.27 223.512 1188.32 223.512Z" fill="#0B315E"/>
<path d="M1221.63 223.512C1219.68 223.512 1218.08 221.933 1218.08 219.969C1218.08 218.023 1219.66 216.425 1221.63 216.425C1223.57 216.425 1225.17 218.004 1225.17 219.969C1225.15 221.915 1223.57 223.512 1221.63 223.512Z" fill="#0B315E"/>
<path d="M1254.91 223.512C1252.97 223.512 1251.37 221.933 1251.37 219.969C1251.37 218.023 1252.95 216.425 1254.91 216.425C1256.86 216.425 1258.45 218.004 1258.45 219.969C1258.45 221.915 1256.88 223.512 1254.91 223.512Z" fill="#0B315E"/>
<path d="M1288.22 223.512C1286.27 223.512 1284.67 221.933 1284.67 219.969C1284.67 218.023 1286.25 216.425 1288.22 216.425C1290.16 216.425 1291.76 218.004 1291.76 219.969C1291.76 221.915 1290.16 223.512 1288.22 223.512Z" fill="#0B315E"/>
<path d="M1321.5 223.512C1319.56 223.512 1317.96 221.933 1317.96 219.969C1317.96 218.023 1319.54 216.425 1321.5 216.425C1323.45 216.425 1325.05 218.004 1325.05 219.969C1325.05 221.915 1323.47 223.512 1321.5 223.512Z" fill="#0B315E"/>
<path d="M1354.81 223.512C1352.86 223.512 1351.26 221.933 1351.26 219.969C1351.26 218.023 1352.84 216.425 1354.81 216.425C1356.77 216.425 1358.35 218.004 1358.35 219.969C1358.35 221.915 1356.75 223.512 1354.81 223.512Z" fill="#0B315E"/>
<path d="M1188.32 253.861C1186.37 253.861 1184.78 252.282 1184.78 250.318C1184.78 248.372 1186.36 246.774 1188.32 246.774C1190.28 246.774 1191.86 248.353 1191.86 250.318C1191.86 252.282 1190.27 253.861 1188.32 253.861Z" fill="#0B315E"/>
<path d="M1221.63 253.861C1219.68 253.861 1218.08 252.282 1218.08 250.318C1218.08 248.372 1219.66 246.774 1221.63 246.774C1223.57 246.774 1225.17 248.353 1225.17 250.318C1225.15 252.282 1223.57 253.861 1221.63 253.861Z" fill="#0B315E"/>
<path d="M1254.91 253.861C1252.97 253.861 1251.37 252.282 1251.37 250.318C1251.37 248.372 1252.95 246.774 1254.91 246.774C1256.86 246.774 1258.45 248.353 1258.45 250.318C1258.45 252.282 1256.88 253.861 1254.91 253.861Z" fill="#0B315E"/>
<path d="M1288.22 253.861C1286.27 253.861 1284.67 252.282 1284.67 250.318C1284.67 248.372 1286.25 246.774 1288.22 246.774C1290.16 246.774 1291.76 248.353 1291.76 250.318C1291.76 252.282 1290.16 253.861 1288.22 253.861Z" fill="#0B315E"/>
<path d="M1321.5 253.861C1319.56 253.861 1317.96 252.282 1317.96 250.318C1317.96 248.372 1319.54 246.774 1321.5 246.774C1323.45 246.774 1325.05 248.353 1325.05 250.318C1325.05 252.282 1323.47 253.861 1321.5 253.861Z" fill="#0B315E"/>
<path d="M1354.81 253.861C1352.86 253.861 1351.26 252.282 1351.26 250.318C1351.26 248.372 1352.84 246.774 1354.81 246.774C1356.77 246.774 1358.35 248.353 1358.35 250.318C1358.35 252.282 1356.75 253.861 1354.81 253.861Z" fill="#0B315E"/>
<path d="M1188.32 284.228C1186.37 284.228 1184.78 282.649 1184.78 280.685C1184.78 278.739 1186.36 277.141 1188.32 277.141C1190.28 277.141 1191.86 278.72 1191.86 280.685C1191.86 282.631 1190.27 284.228 1188.32 284.228Z" fill="#0B315E"/>
<path d="M1221.63 284.228C1219.68 284.228 1218.08 282.649 1218.08 280.685C1218.08 278.739 1219.66 277.141 1221.63 277.141C1223.57 277.141 1225.17 278.72 1225.17 280.685C1225.15 282.631 1223.57 284.228 1221.63 284.228Z" fill="#0B315E"/>
<path d="M1254.91 284.228C1252.97 284.228 1251.37 282.649 1251.37 280.685C1251.37 278.739 1252.95 277.141 1254.91 277.141C1256.86 277.141 1258.45 278.72 1258.45 280.685C1258.45 282.631 1256.88 284.228 1254.91 284.228Z" fill="#0B315E"/>
<path d="M1288.22 284.228C1286.27 284.228 1284.67 282.649 1284.67 280.685C1284.67 278.739 1286.25 277.141 1288.22 277.141C1290.16 277.141 1291.76 278.72 1291.76 280.685C1291.76 282.631 1290.16 284.228 1288.22 284.228Z" fill="#0B315E"/>
<path d="M1321.5 284.228C1319.56 284.228 1317.96 282.649 1317.96 280.685C1317.96 278.739 1319.54 277.141 1321.5 277.141C1323.45 277.141 1325.05 278.72 1325.05 280.685C1325.05 282.631 1323.47 284.228 1321.5 284.228Z" fill="#0B315E"/>
<path d="M1354.81 284.228C1352.86 284.228 1351.26 282.649 1351.26 280.685C1351.26 278.739 1352.84 277.141 1354.81 277.141C1356.77 277.141 1358.35 278.72 1358.35 280.685C1358.35 282.631 1356.75 284.228 1354.81 284.228Z" fill="#0B315E"/>
<path d="M1188.32 314.595C1186.37 314.595 1184.78 313.016 1184.78 311.052C1184.78 309.106 1186.36 307.508 1188.32 307.508C1190.28 307.508 1191.86 309.087 1191.86 311.052C1191.86 312.998 1190.27 314.595 1188.32 314.595Z" fill="#0B315E"/>
<path d="M1221.63 314.595C1219.68 314.595 1218.08 313.016 1218.08 311.052C1218.08 309.106 1219.66 307.508 1221.63 307.508C1223.57 307.508 1225.17 309.087 1225.17 311.052C1225.15 312.998 1223.57 314.595 1221.63 314.595Z" fill="#0B315E"/>
<path d="M1254.91 314.595C1252.97 314.595 1251.37 313.016 1251.37 311.052C1251.37 309.106 1252.95 307.508 1254.91 307.508C1256.86 307.508 1258.45 309.087 1258.45 311.052C1258.45 312.998 1256.88 314.595 1254.91 314.595Z" fill="#0B315E"/>
<path d="M1288.22 314.595C1286.27 314.595 1284.67 313.016 1284.67 311.052C1284.67 309.106 1286.25 307.508 1288.22 307.508C1290.16 307.508 1291.76 309.087 1291.76 311.052C1291.76 312.998 1290.16 314.595 1288.22 314.595Z" fill="#0B315E"/>
<path d="M1321.5 314.595C1319.56 314.595 1317.96 313.016 1317.96 311.052C1317.96 309.106 1319.54 307.508 1321.5 307.508C1323.45 307.508 1325.05 309.087 1325.05 311.052C1325.05 312.998 1323.47 314.595 1321.5 314.595Z" fill="#0B315E"/>
<path d="M1354.81 314.595C1352.86 314.595 1351.26 313.016 1351.26 311.052C1351.26 309.106 1352.84 307.508 1354.81 307.508C1356.77 307.508 1358.35 309.087 1358.35 311.052C1358.35 312.998 1356.75 314.595 1354.81 314.595Z" fill="#0B315E"/>
<path d="M1188.32 344.944C1186.37 344.944 1184.78 343.365 1184.78 341.401C1184.78 339.455 1186.36 337.857 1188.32 337.857C1190.28 337.857 1191.86 339.436 1191.86 341.401C1191.86 343.365 1190.27 344.944 1188.32 344.944Z" fill="#0B315E"/>
<path d="M1221.63 344.944C1219.68 344.944 1218.08 343.365 1218.08 341.401C1218.08 339.455 1219.66 337.857 1221.63 337.857C1223.57 337.857 1225.17 339.436 1225.17 341.401C1225.15 343.365 1223.57 344.944 1221.63 344.944Z" fill="#0B315E"/>
<path d="M1254.91 344.944C1252.97 344.944 1251.37 343.365 1251.37 341.401C1251.37 339.455 1252.95 337.857 1254.91 337.857C1256.86 337.857 1258.45 339.436 1258.45 341.401C1258.45 343.365 1256.88 344.944 1254.91 344.944Z" fill="#0B315E"/>
<path d="M1288.22 344.944C1286.27 344.944 1284.67 343.365 1284.67 341.401C1284.67 339.455 1286.25 337.857 1288.22 337.857C1290.16 337.857 1291.76 339.436 1291.76 341.401C1291.76 343.365 1290.16 344.944 1288.22 344.944Z" fill="#0B315E"/>
<path d="M1321.5 344.944C1319.56 344.944 1317.96 343.365 1317.96 341.401C1317.96 339.455 1319.54 337.857 1321.5 337.857C1323.45 337.857 1325.05 339.436 1325.05 341.401C1325.05 343.365 1323.47 344.944 1321.5 344.944Z" fill="#0B315E"/>
<path d="M1354.81 344.944C1352.86 344.944 1351.26 343.365 1351.26 341.401C1351.26 339.455 1352.84 337.857 1354.81 337.857C1356.77 337.857 1358.35 339.436 1358.35 341.401C1358.35 343.365 1356.75 344.944 1354.81 344.944Z" fill="#0B315E"/>
<path d="M1328.57 368.757L1172.42 212.607H1328.57V368.757Z" fill="#01237A"/>
<path d="M148.476 95.1222C146.419 95.1222 144.932 96.6093 144.932 98.6472C144.932 100.704 146.419 102.191 148.457 102.191C150.514 102.191 151.982 100.704 152.001 98.6656C152.001 96.6093 150.532 95.1222 148.476 95.1222Z" fill="#0B315E"/>
<path d="M183.837 95.1222C181.78 95.0855 180.238 96.5359 180.202 98.5738C180.165 100.63 181.634 102.172 183.653 102.209C185.709 102.246 187.233 100.795 187.27 98.7574C187.325 96.6828 185.875 95.1589 183.837 95.1222Z" fill="#0B315E"/>
<path d="M219.069 95.1222C217.013 95.1038 215.507 96.591 215.489 98.6289C215.471 100.685 216.958 102.191 218.996 102.209C221.052 102.227 222.539 100.759 222.558 98.7023C222.576 96.6277 221.126 95.1405 219.069 95.1222Z" fill="#0B315E"/>
<path d="M60.2385 119.853C62.2948 119.853 63.782 118.384 63.782 116.328C63.782 114.271 62.3132 112.784 60.2569 112.784C58.2006 112.784 56.7134 114.271 56.7134 116.309C56.6951 118.347 58.2006 119.834 60.2385 119.853Z" fill="#0B315E"/>
<path d="M95.471 119.853C97.5273 119.871 99.0328 118.421 99.0695 116.365C99.0879 114.29 97.6375 112.784 95.5995 112.766C93.5432 112.748 92.0194 114.198 92.001 116.236C91.9643 118.292 93.4514 119.816 95.471 119.853Z" fill="#0B315E"/>
<path d="M130.777 112.766C128.739 112.784 127.252 114.29 127.27 116.346C127.289 118.384 128.812 119.871 130.85 119.853C132.907 119.835 134.357 118.329 134.339 116.273C134.339 114.216 132.833 112.748 130.777 112.766Z" fill="#0B315E"/>
<path d="M166.248 112.766C164.192 112.711 162.631 114.143 162.558 116.163C162.503 118.219 163.935 119.779 165.954 119.853C168.011 119.908 169.571 118.476 169.626 116.456C169.7 114.363 168.286 112.821 166.248 112.766Z" fill="#0B315E"/>
<path d="M201.462 112.766C199.406 112.748 197.882 114.216 197.864 116.236C197.845 118.292 199.314 119.816 201.352 119.835C203.408 119.853 204.914 118.384 204.932 116.346C204.951 114.29 203.5 112.784 201.462 112.766Z" fill="#0B315E"/>
<path d="M77.9006 137.497C79.9569 137.478 81.4257 135.991 81.4074 133.935C81.4074 131.879 79.9202 130.41 77.8639 130.41C75.8076 130.41 74.3388 131.915 74.3388 133.972C74.3572 136.009 75.8627 137.497 77.9006 137.497Z" fill="#0B315E"/>
<path d="M109.645 133.696C109.535 135.771 110.93 137.368 112.931 137.497C114.987 137.607 116.603 136.211 116.713 134.21C116.823 132.136 115.446 130.538 113.445 130.428C111.352 130.3 109.755 131.695 109.645 133.696Z" fill="#0B315E"/>
<path d="M148.604 130.41C146.548 130.355 144.987 131.768 144.932 133.806C144.877 135.863 146.309 137.423 148.329 137.497C150.385 137.552 151.946 136.12 152.001 134.1C152.056 132.007 150.642 130.465 148.604 130.41Z" fill="#0B315E"/>
<path d="M183.69 130.41C181.652 130.428 180.183 131.952 180.22 134.008C180.238 136.046 181.762 137.515 183.818 137.497C185.856 137.46 187.307 135.954 187.288 133.898C187.252 131.842 185.746 130.391 183.69 130.41Z" fill="#0B315E"/>
<path d="M95.526 155.14C97.5823 155.14 99.0511 153.672 99.0695 151.615C99.0695 149.559 97.6007 148.072 95.5444 148.072C93.4881 148.072 92.001 149.559 92.001 151.597C92.001 153.635 93.4881 155.14 95.526 155.14Z" fill="#0B315E"/>
<path d="M130.74 148.053C128.702 148.09 127.233 149.614 127.27 151.67C127.307 153.708 128.831 155.177 130.887 155.14C132.925 155.104 134.375 153.598 134.339 151.523C134.32 149.467 132.815 148.017 130.74 148.053Z" fill="#0B315E"/>
<path d="M166.175 148.053C164.118 148.035 162.594 149.504 162.576 151.523C162.558 153.58 164.027 155.104 166.064 155.122C168.121 155.14 169.626 153.69 169.645 151.634C169.663 149.577 168.213 148.072 166.175 148.053Z" fill="#0B315E"/>
<path d="M113.041 172.784C115.098 172.839 116.658 171.407 116.713 169.388C116.768 167.313 115.355 165.771 113.335 165.716C111.279 165.661 109.718 167.093 109.645 169.112C109.571 171.15 111.022 172.711 113.041 172.784Z" fill="#0B315E"/>
<path d="M148.549 165.697C146.493 165.661 144.951 167.111 144.914 169.149C144.877 171.205 146.346 172.747 148.366 172.784C150.422 172.821 151.946 171.37 151.982 169.333C152.038 167.258 150.587 165.734 148.549 165.697Z" fill="#0B315E"/>
<path d="M130.759 183.341C128.721 183.378 127.252 184.883 127.289 186.94C127.325 188.977 128.849 190.446 130.887 190.41C132.925 190.373 134.375 188.867 134.357 186.811C134.32 184.773 132.815 183.304 130.759 183.341Z" fill="#0B315E"/>
<path d="M95.5444 49.2777C97.6007 49.2777 99.0695 47.7906 99.0695 45.7159C99.0695 43.6596 97.5823 42.1909 95.526 42.1909C93.4697 42.1909 91.9826 43.6964 92.001 45.7343C92.001 47.7906 93.5065 49.2777 95.5444 49.2777Z" fill="#0B315E"/>
<path d="M134.339 45.973C134.449 43.8983 133.072 42.301 131.071 42.1908C128.996 42.0807 127.399 43.476 127.289 45.4773C127.178 47.5335 128.574 49.1492 130.575 49.2594C132.631 49.3879 134.247 47.9742 134.339 45.973Z" fill="#0B315E"/>
<path d="M166.175 42.1909C164.118 42.1725 162.594 43.6413 162.576 45.6609C162.558 47.7172 164.027 49.241 166.064 49.2594C168.121 49.2778 169.626 47.8273 169.645 45.771C169.663 43.7147 168.213 42.2276 166.175 42.1909Z" fill="#0B315E"/>
<path d="M77.9557 66.9215C79.9937 66.8848 81.4441 65.3793 81.4257 63.323C81.4074 61.2851 79.9019 59.8163 77.8272 59.853C75.7893 59.8897 74.3205 61.3952 74.3572 63.4515C74.3756 65.4711 75.8994 66.9399 77.9557 66.9215Z" fill="#0B315E"/>
<path d="M113.243 59.8346C111.187 59.8163 109.681 61.2667 109.645 63.3046C109.626 65.3609 111.077 66.8848 113.115 66.9031C115.171 66.9215 116.677 65.4711 116.713 63.4148C116.732 61.3768 115.281 59.8713 113.243 59.8346Z" fill="#0B315E"/>
<path d="M148.494 59.8346C146.438 59.8163 144.932 61.285 144.932 63.3413C144.914 65.3976 146.401 66.9031 148.439 66.9215C150.495 66.9399 151.982 65.4527 152.001 63.4148C152.001 61.3401 150.55 59.853 148.494 59.8346Z" fill="#0B315E"/>
<path d="M183.745 59.8346C181.689 59.8346 180.22 61.3218 180.22 63.3781C180.22 65.4344 181.725 66.9215 183.763 66.9031C185.82 66.9031 187.288 65.416 187.288 63.3413C187.27 61.3034 185.801 59.8346 183.745 59.8346Z" fill="#0B315E"/>
<path d="M60.2018 84.5653C62.2581 84.5837 63.7453 83.1149 63.7636 81.0586C63.782 79.0023 62.3132 77.4968 60.2753 77.4784C58.219 77.46 56.7134 78.9472 56.6951 80.9851C56.6951 83.0231 58.1822 84.5469 60.2018 84.5653Z" fill="#0B315E"/>
<path d="M95.4894 84.5653C97.5457 84.5837 99.0328 83.1149 99.0512 81.0586C99.0695 79.0023 97.6007 77.4968 95.5628 77.4784C93.5065 77.46 92.001 78.9472 91.9826 80.9851C91.9826 83.0231 93.4698 84.5469 95.4894 84.5653Z" fill="#0B315E"/>
<path d="M130.96 77.4784C128.904 77.4233 127.344 78.8554 127.27 80.8749C127.215 82.9312 128.647 84.4918 130.667 84.5653C132.723 84.6387 134.284 83.1883 134.339 81.1687C134.412 79.0757 132.998 77.5518 130.96 77.4784Z" fill="#0B315E"/>
<path d="M166.12 77.4784C164.063 77.4784 162.576 78.9656 162.576 81.0035C162.576 83.0598 164.063 84.547 166.101 84.5653C168.157 84.5653 169.645 83.0965 169.645 81.0402C169.645 78.9656 168.176 77.4784 166.12 77.4784Z" fill="#0B315E"/>
<path d="M201.425 77.4784C199.369 77.46 197.864 78.9472 197.845 80.9851C197.827 83.0414 199.314 84.5469 201.352 84.5653C203.408 84.5837 204.895 83.0965 204.914 81.0586C204.932 78.9839 203.482 77.4968 201.425 77.4784Z" fill="#0B315E"/>
<path d="M42.5764 102.209C44.6327 102.227 46.1198 100.74 46.1382 98.7023C46.1565 96.6461 44.6878 95.1405 42.6498 95.1405C40.5935 95.1222 39.088 96.6093 39.0697 98.6473C39.0513 100.667 40.5384 102.191 42.5764 102.209Z" fill="#0B315E"/>
<path d="M77.7538 102.209C79.8101 102.283 81.3706 100.832 81.4257 98.8125C81.4808 96.7379 80.0671 95.1956 78.0475 95.1222C75.9912 95.0671 74.4306 96.4992 74.3572 98.5188C74.2838 100.575 75.7342 102.136 77.7538 102.209Z" fill="#0B315E"/>
<path d="M113.225 95.1222C111.169 95.1038 109.645 96.5726 109.626 98.6105C109.608 100.667 111.077 102.191 113.115 102.209C115.171 102.227 116.677 100.759 116.695 98.7207C116.732 96.646 115.281 95.1405 113.225 95.1222Z" fill="#0B315E"/>
<path d="M307.839 736.045V646.137H217.931V736.045V825.953H307.839H397.747V736.045H307.839Z" fill="#01237A"/>
<path d="M362.845 864.527H179.357V681.039H272.937V770.947H362.845V864.527ZM183.029 860.855H359.173V774.619H269.265V684.711H183.029V860.855Z" fill="#0B315E"/>
<path d="M326.658 647.11H321.186V725.139H326.658V647.11Z" fill="#FFC200"/>
<path d="M340.593 647.091H335.121V725.121H340.593V647.091Z" fill="#FFC200"/>
<path d="M354.509 647.11H349.038V725.139H354.509V647.11Z" fill="#FFC200"/>
<path d="M368.426 647.11H362.955V725.139H368.426V647.11Z" fill="#FFC200"/>
<path d="M382.343 647.091H376.872V725.121H382.343V647.091Z" fill="#FFC200"/>
<path d="M396.094 647.11H390.788V725.139H396.094V647.11Z" fill="#FFC200"/>
<path d="M178.347 344.981H0.275452V481.853H178.347C197.203 481.817 214.259 474.179 226.634 461.804C239.026 449.43 246.682 432.319 246.682 413.426C246.682 375.66 216.095 345.036 178.347 344.981Z" fill="#01237A"/>
<path d="M246.682 413.426C246.682 432.319 239.026 449.43 226.634 461.804C214.259 474.179 197.203 481.817 178.347 481.853H178.237C140.489 481.798 109.92 451.174 109.92 413.426C109.92 375.66 140.489 345.036 178.237 344.981H178.347C216.095 345.036 246.682 375.66 246.682 413.426Z" fill="#01237A"/>
<path d="M178.347 483.689C139.553 483.634 108.084 452.11 108.084 413.426C108.084 374.724 139.553 343.2 178.237 343.145C217.05 343.2 248.518 374.724 248.518 413.426C248.518 432.208 241.211 449.852 227.937 463.108C214.7 476.345 197.093 483.653 178.347 483.689ZM178.347 346.817C141.591 346.872 111.756 376.743 111.756 413.426C111.756 450.091 141.573 479.962 178.237 480.017C196.101 479.981 212.79 473.059 225.33 460.501C237.906 447.943 244.846 431.217 244.846 413.426C244.846 376.762 215.012 346.872 178.347 346.817Z" fill="#0B315E"/>
<path d="M87.0806 648.707H0.275452V667.012H87.0806V648.707Z" fill="#FFC200"/>
<path d="M87.0806 688.493H0.275459V706.798H87.0806V688.493Z" fill="#01237A"/>
<path d="M46.7992 725.91H0.275459V744.215H46.7992V725.91Z" fill="#0B315E"/>
<path d="M1098.78 260.122H1092.57V291.389H1098.78V260.122Z" fill="#0B315E"/>
<path d="M1132.87 260.122H1126.67V291.389H1132.87V260.122Z" fill="#0B315E"/>
<path d="M34.2844 261.866V268.071H65.5512V261.866H34.2844Z" fill="#0B315E"/>
<path d="M34.2703 227.768V233.973H65.537V227.768H34.2703Z" fill="#FFC200"/>
<path d="M34.2712 193.654V199.86H65.538V193.654H34.2712Z" fill="#01237A"/>
<path d="M939.747 148.439C875.598 148.439 823.603 200.434 823.603 264.583C823.603 328.732 875.598 380.727 939.747 380.727C1003.9 380.727 1055.89 328.732 1055.89 264.583C1055.89 200.434 1003.9 148.439 939.747 148.439ZM939.747 335.122C900.788 335.122 869.209 303.543 869.209 264.583C869.209 225.624 900.788 194.045 939.747 194.045C978.707 194.045 1010.29 225.624 1010.29 264.583C1010.29 303.543 978.707 335.122 939.747 335.122Z" fill="#FFC200"/>
<path d="M977.348 882.813C900.898 882.813 829.019 853.034 774.949 798.982L777.538 796.393C887.715 906.571 1066.96 906.571 1177.14 796.393C1230.51 743.022 1259.91 672.061 1259.91 596.602C1259.91 521.143 1230.51 450.164 1177.14 396.811L1179.73 394.222C1233.8 448.292 1263.56 520.17 1263.56 596.62C1263.56 673.071 1233.78 744.949 1179.73 799.019C1125.68 853.052 1053.8 882.813 977.348 882.813Z" fill="#0B315E"/>
<path d="M977.348 863.003C909.086 863.003 840.843 837.024 788.884 785.066L791.473 782.477C893.958 884.961 1060.72 884.961 1163.22 782.477C1265.71 679.992 1265.71 513.212 1163.22 410.727L1165.81 408.139C1269.73 512.055 1269.73 681.149 1165.81 785.084C1113.85 837.024 1045.59 863.003 977.348 863.003Z" fill="#0B315E"/>
<path d="M977.348 843.431C911.418 843.431 849.435 817.746 802.801 771.13L805.39 768.542C851.326 814.478 912.391 839.759 977.33 839.759C1042.29 839.759 1103.35 814.46 1149.27 768.542C1195.21 722.605 1220.49 661.541 1220.49 596.602C1220.49 531.645 1195.19 470.58 1149.27 424.662L1151.86 422.074C1198.47 468.689 1224.16 530.69 1224.16 596.62C1224.16 662.55 1198.47 724.533 1151.86 771.167C1105.26 817.746 1043.28 843.431 977.348 843.431Z" fill="#0B315E"/>
<path d="M977.348 823.621C919.184 823.621 861.02 801.479 816.736 757.195L819.325 754.607C906.461 841.742 1048.24 841.742 1135.37 754.607C1222.51 667.471 1222.51 525.696 1135.37 438.561L1137.96 435.972C1226.53 524.54 1226.53 668.646 1137.96 757.195C1093.68 801.479 1035.51 823.621 977.348 823.621Z" fill="#0B315E"/>
<path d="M977.348 803.939C924.233 803.939 871.1 783.725 830.653 743.279L833.242 740.69C912.703 820.151 1041.97 820.151 1121.42 740.69C1200.88 661.229 1200.88 531.957 1121.42 452.514L1124.01 449.926C1204.88 530.801 1204.88 662.422 1124.01 743.297C1083.6 783.725 1030.46 803.939 977.348 803.939Z" fill="#0B315E"/>
<path d="M977.348 784.258C929.264 784.258 881.179 765.953 844.588 729.362L847.177 726.773C918.945 798.542 1035.73 798.542 1107.5 726.773C1142.27 692 1161.42 645.77 1161.42 596.602C1161.42 547.435 1142.27 501.205 1107.5 466.431L1110.09 463.842C1145.56 499.295 1165.08 546.461 1165.08 596.602C1165.08 646.743 1145.54 693.909 1110.09 729.362C1073.5 765.953 1025.43 784.258 977.348 784.258Z" fill="#0B315E"/>
<path d="M977.348 764.576C934.313 764.576 891.277 748.199 858.505 715.427L861.094 712.838C925.188 776.932 1029.47 776.932 1093.57 712.838C1157.66 648.744 1157.66 544.46 1093.57 480.366L1096.15 477.777C1161.68 543.304 1161.68 649.919 1096.15 715.445C1063.42 748.181 1020.38 764.576 977.348 764.576Z" fill="#0B315E"/>
<path d="M1091.55 381.058L1080.95 391.633V381.058H1091.55Z" fill="#0B315E"/>
<path d="M1111.15 381.058L1080.95 411.26V400.685L1100.58 381.058H1111.15Z" fill="#0B315E"/>
<path d="M1169.87 381.058L1080.95 469.956V459.546L1159.44 381.058H1169.87Z" fill="#0B315E"/>
<path d="M1150.41 381.058L1080.95 450.495V439.919L1139.83 381.058H1150.41Z" fill="#0B315E"/>
<path d="M1130.78 381.058L1080.95 430.886V420.293L1120.21 381.058H1130.78Z" fill="#0B315E"/>
<path d="M772.838 909.637C975.686 909.637 1140.13 745.196 1140.13 542.349C1140.13 339.501 975.686 175.061 772.838 175.061C569.99 175.061 405.55 339.501 405.55 542.349C405.55 745.196 569.99 909.637 772.838 909.637Z" fill="url(#paint0_radial_347_879)"/>
<path d="M688.768 855.163C887.094 855.163 1047.87 694.389 1047.87 496.064C1047.87 297.738 887.094 136.964 688.768 136.964C490.443 136.964 329.669 297.738 329.669 496.064C329.669 694.389 490.443 855.163 688.768 855.163Z" fill="#F9F5EF"/>
<path d="M694.093 221.254C696.628 221.254 698.683 219.199 698.683 216.664C698.683 214.129 696.628 212.074 694.093 212.074C691.558 212.074 689.503 214.129 689.503 216.664C689.503 219.199 691.558 221.254 694.093 221.254Z" fill="#114A82"/>
<path d="M742.067 225.238C739.588 225.238 737.587 223.237 737.587 220.758C737.587 218.28 739.588 216.279 742.067 216.279C744.546 216.279 746.547 218.28 746.547 220.758C746.547 223.237 744.546 225.238 742.067 225.238Z" fill="#114A82"/>
<path d="M788.627 237.429C791.041 237.429 792.997 235.473 792.997 233.059C792.997 230.646 791.041 228.69 788.627 228.69C786.214 228.69 784.258 230.646 784.258 233.059C784.258 235.473 786.214 237.429 788.627 237.429Z" fill="#114A82"/>
<path d="M832.342 257.478C829.992 257.478 828.083 255.569 828.083 253.219C828.083 250.869 829.992 248.959 832.342 248.959C834.692 248.959 836.602 250.869 836.602 253.219C836.62 255.569 834.711 257.478 832.342 257.478Z" fill="#114A82"/>
<path d="M871.963 284.724C869.668 284.724 867.813 282.87 867.813 280.575C867.813 278.28 869.668 276.425 871.963 276.425C874.257 276.425 876.112 278.28 876.112 280.575C876.112 282.87 874.257 284.724 871.963 284.724Z" fill="#114A82"/>
<path d="M906.314 318.359C908.555 318.359 910.371 316.542 910.371 314.302C910.371 312.061 908.555 310.244 906.314 310.244C904.073 310.244 902.256 312.061 902.256 314.302C902.256 316.542 904.073 318.359 906.314 318.359Z" fill="#114A82"/>
<path d="M934.386 357.355C932.201 357.355 930.439 355.593 930.439 353.408C930.439 351.223 932.201 349.461 934.386 349.461C936.571 349.461 938.333 351.223 938.333 353.408C938.333 355.593 936.571 357.355 934.386 357.355Z" fill="#114A82"/>
<path d="M959.15 397.427C959.488 395.335 958.065 393.366 955.973 393.028C953.881 392.69 951.912 394.113 951.574 396.205C951.236 398.297 952.659 400.266 954.751 400.604C956.843 400.942 958.813 399.519 959.15 397.427Z" fill="#114A82"/>
<path d="M968.48 446.804C966.424 446.804 964.753 445.134 964.753 443.077C964.753 441.021 966.424 439.35 968.48 439.35C970.536 439.35 972.207 441.021 972.207 443.077C972.207 445.134 970.536 446.804 968.48 446.804Z" fill="#114A82"/>
<path d="M973.456 494.577C971.454 494.577 969.839 492.961 969.839 490.96C969.839 488.958 971.454 487.343 973.456 487.343C975.457 487.343 977.073 488.958 977.073 490.96C977.073 492.961 975.457 494.577 973.456 494.577Z" fill="#114A82"/>
<path d="M970.224 542.514C968.278 542.514 966.718 540.935 966.718 539.007C966.718 537.061 968.297 535.501 970.224 535.501C972.17 535.501 973.731 537.08 973.731 539.007C973.731 540.935 972.152 542.514 970.224 542.514Z" fill="#114A82"/>
<path d="M958.786 589.166C956.913 589.166 955.39 587.642 955.39 585.77C955.39 583.897 956.913 582.373 958.786 582.373C960.659 582.373 962.183 583.897 962.183 585.77C962.183 587.642 960.659 589.166 958.786 589.166Z" fill="#114A82"/>
<path d="M939.435 633.156C937.617 633.156 936.149 631.688 936.149 629.87C936.149 628.052 937.617 626.584 939.435 626.584C941.253 626.584 942.721 628.052 942.721 629.87C942.721 631.669 941.253 633.156 939.435 633.156Z" fill="#114A82"/>
<path d="M912.795 673.144C911.032 673.144 909.619 671.712 909.619 669.968C909.619 668.205 911.051 666.792 912.795 666.792C914.557 666.792 915.971 668.224 915.971 669.968C915.971 671.712 914.557 673.144 912.795 673.144Z" fill="#114A82"/>
<path d="M879.692 707.991C877.985 707.991 876.608 706.614 876.608 704.907C876.608 703.199 877.985 701.822 879.692 701.822C881.4 701.822 882.777 703.199 882.777 704.907C882.758 706.614 881.381 707.991 879.692 707.991Z" fill="#114A82"/>
<path d="M841.1 736.669C839.466 736.669 838.125 735.347 838.125 733.695C838.125 732.042 839.447 730.72 841.1 730.72C842.752 730.72 844.074 732.042 844.074 733.695C844.074 735.347 842.734 736.669 841.1 736.669Z" fill="#114A82"/>
<path d="M798.138 758.297C796.559 758.297 795.274 757.012 795.274 755.433C795.274 753.854 796.559 752.569 798.138 752.569C799.717 752.569 801.002 753.854 801.002 755.433C801.002 757.012 799.717 758.297 798.138 758.297Z" fill="#114A82"/>
<path d="M752.073 772.177C750.549 772.177 749.319 770.947 749.319 769.423C749.319 767.899 750.549 766.669 752.073 766.669C753.597 766.669 754.827 767.899 754.827 769.423C754.827 770.947 753.597 772.177 752.073 772.177Z" fill="#114A82"/>
<path d="M704.282 777.923C702.814 777.923 701.639 776.748 701.639 775.28C701.639 773.811 702.814 772.636 704.282 772.636C705.751 772.636 706.926 773.811 706.926 775.28C706.926 776.748 705.751 777.923 704.282 777.923Z" fill="#114A82"/>
<path d="M656.198 775.445C654.803 775.445 653.664 774.307 653.664 772.911C653.664 771.516 654.803 770.378 656.198 770.378C657.593 770.378 658.732 771.516 658.732 772.911C658.732 774.307 657.593 775.445 656.198 775.445Z" fill="#114A82"/>
<path d="M609.234 764.76C607.893 764.76 606.81 763.676 606.81 762.336C606.81 760.996 607.893 759.913 609.234 759.913C610.574 759.913 611.657 760.996 611.657 762.336C611.657 763.676 610.574 764.76 609.234 764.76Z" fill="#114A82"/>
<path d="M564.785 746.106C563.499 746.106 562.471 745.059 562.471 743.793C562.471 742.507 563.518 741.479 564.785 741.479C566.07 741.479 567.098 742.526 567.098 743.793C567.116 745.078 566.07 746.106 564.785 746.106Z" fill="#114A82"/>
<path d="M524.209 720.09C522.979 720.09 522.006 719.099 522.006 717.887C522.006 716.675 522.998 715.684 524.209 715.684C525.421 715.684 526.413 716.675 526.413 717.887C526.413 719.099 525.44 720.09 524.209 720.09Z" fill="#114A82"/>
<path d="M488.646 687.52C489.813 687.52 490.758 686.575 490.758 685.408C490.758 684.242 489.813 683.297 488.646 683.297C487.48 683.297 486.535 684.242 486.535 685.408C486.535 686.575 487.48 687.52 488.646 687.52Z" fill="#114A82"/>
<path d="M694.093 242.753C696.628 242.753 698.683 240.698 698.683 238.163C698.683 235.629 696.628 233.574 694.093 233.574C691.558 233.574 689.503 235.629 689.503 238.163C689.503 240.698 691.558 242.753 694.093 242.753Z" fill="#114A82"/>
<path d="M741.498 246.94C739.056 246.94 737.073 244.957 737.073 242.515C737.073 240.073 739.056 238.09 741.498 238.09C743.94 238.09 745.923 240.073 745.923 242.515C745.923 244.957 743.94 246.94 741.498 246.94Z" fill="#114A82"/>
<path d="M787.287 259.755C789.629 259.755 791.528 257.856 791.528 255.514C791.528 253.171 789.629 251.272 787.287 251.272C784.945 251.272 783.046 253.171 783.046 255.514C783.046 257.856 784.945 259.755 787.287 259.755Z" fill="#114A82"/>
<path d="M829.882 280.832C827.642 280.832 825.806 279.014 825.806 276.756C825.806 274.516 827.624 272.68 829.882 272.68C832.122 272.68 833.958 274.498 833.958 276.756C833.939 279.014 832.122 280.832 829.882 280.832Z" fill="#114A82"/>
<path d="M867.832 309.363C865.684 309.363 863.939 307.619 863.939 305.471C863.939 303.322 865.684 301.578 867.832 301.578C869.98 301.578 871.724 303.322 871.724 305.471C871.724 307.619 869.998 309.363 867.832 309.363Z" fill="#114A82"/>
<path d="M899.906 344.357C897.85 344.357 896.179 342.686 896.179 340.63C896.179 338.573 897.85 336.903 899.906 336.903C901.963 336.903 903.633 338.573 903.633 340.63C903.633 342.686 901.963 344.357 899.906 344.357Z" fill="#114A82"/>
<path d="M925.004 384.638C923.04 384.638 921.461 383.041 921.461 381.095C921.461 379.13 923.058 377.551 925.004 377.551C926.95 377.551 928.548 379.148 928.548 381.095C928.548 383.041 926.969 384.638 925.004 384.638Z" fill="#114A82"/>
<path d="M942.207 428.83C944.073 428.83 945.586 427.318 945.586 425.452C945.586 423.586 944.073 422.074 942.207 422.074C940.342 422.074 938.829 423.586 938.829 425.452C938.829 427.318 940.342 428.83 942.207 428.83Z" fill="#114A82"/>
<path d="M950.91 475.464C949.147 475.464 947.715 474.032 947.715 472.27C947.715 470.507 949.147 469.075 950.91 469.075C952.672 469.075 954.104 470.507 954.104 472.27C954.104 474.032 952.672 475.464 950.91 475.464Z" fill="#114A82"/>
<path d="M950.91 522.887C949.239 522.887 947.88 521.529 947.88 519.858C947.88 518.187 949.239 516.829 950.91 516.829C952.581 516.829 953.939 518.187 953.939 519.858C953.939 521.529 952.581 522.887 950.91 522.887Z" fill="#114A82"/>
<path d="M942.207 569.503C940.628 569.503 939.362 568.218 939.362 566.657C939.362 565.078 940.647 563.811 942.207 563.811C943.786 563.811 945.053 565.097 945.053 566.657C945.053 568.218 943.786 569.503 942.207 569.503Z" fill="#114A82"/>
<path d="M925.004 613.713C923.517 613.713 922.324 612.52 922.324 611.033C922.324 609.546 923.517 608.352 925.004 608.352C926.491 608.352 927.685 609.546 927.685 611.033C927.685 612.502 926.491 613.713 925.004 613.713Z" fill="#114A82"/>
<path d="M899.925 653.977C898.548 653.977 897.428 652.857 897.428 651.48C897.428 650.103 898.548 648.983 899.925 648.983C901.302 648.983 902.421 650.103 902.421 651.48C902.421 652.857 901.302 653.977 899.925 653.977Z" fill="#114A82"/>
<path d="M867.85 688.97C866.565 688.97 865.518 687.924 865.518 686.639C865.518 685.353 866.565 684.307 867.85 684.307C869.135 684.307 870.182 685.353 870.182 686.639C870.163 687.924 869.135 688.97 867.85 688.97Z" fill="#114A82"/>
<path d="M829.882 717.501C828.689 717.501 827.734 716.528 827.734 715.353C827.734 714.178 828.707 713.205 829.882 713.205C831.075 713.205 832.03 714.178 832.03 715.353C832.03 716.528 831.075 717.501 829.882 717.501Z" fill="#114A82"/>
<path d="M787.287 738.578C786.186 738.578 785.304 737.697 785.304 736.596C785.304 735.494 786.186 734.613 787.287 734.613C788.389 734.613 789.27 735.494 789.27 736.596C789.27 737.697 788.389 738.578 787.287 738.578Z" fill="#114A82"/>
<path d="M741.498 751.412C742.502 751.412 743.315 750.598 743.315 749.594C743.315 748.59 742.502 747.777 741.498 747.777C740.494 747.777 739.68 748.59 739.68 749.594C739.68 750.598 740.494 751.412 741.498 751.412Z" fill="#114A82"/>
<path d="M694.093 755.58C694.995 755.58 695.727 754.848 695.727 753.946C695.727 753.043 694.995 752.312 694.093 752.312C693.19 752.312 692.459 753.043 692.459 753.946C692.459 754.848 693.19 755.58 694.093 755.58Z" fill="#114A82"/>
<path d="M694.093 267.539C696.628 267.539 698.683 265.484 698.683 262.949C698.683 260.414 696.628 258.359 694.093 258.359C691.558 258.359 689.503 260.414 689.503 262.949C689.503 265.484 691.558 267.539 694.093 267.539Z" fill="#114A82"/>
<path d="M739.588 271.56C737.275 271.56 735.421 269.687 735.421 267.392C735.421 265.079 737.293 263.225 739.588 263.225C741.883 263.225 743.756 265.097 743.756 267.392C743.774 269.687 741.902 271.56 739.588 271.56Z" fill="#114A82"/>
<path d="M783.34 284.394C781.265 284.394 779.576 282.704 779.576 280.63C779.576 278.555 781.265 276.866 783.34 276.866C785.415 276.866 787.104 278.555 787.104 280.63C787.104 282.704 785.415 284.394 783.34 284.394Z" fill="#114A82"/>
<path d="M823.621 305.544C825.467 305.544 826.963 304.048 826.963 302.203C826.963 300.357 825.467 298.861 823.621 298.861C821.776 298.861 820.28 300.357 820.28 302.203C820.28 304.048 821.776 305.544 823.621 305.544Z" fill="#114A82"/>
<path d="M858.946 334.149C857.33 334.149 856.008 332.827 856.008 331.211C856.008 329.595 857.33 328.273 858.946 328.273C860.561 328.273 861.883 329.595 861.883 331.211C861.883 332.827 860.561 334.149 858.946 334.149Z" fill="#114A82"/>
<path d="M887.954 369.051C886.559 369.051 885.439 367.931 885.439 366.535C885.439 365.14 886.559 364.02 887.954 364.02C889.349 364.02 890.469 365.14 890.469 366.535C890.469 367.931 889.349 369.051 887.954 369.051Z" fill="#114A82"/>
<path d="M909.527 408.928C908.37 408.928 907.415 407.992 907.415 406.817C907.415 405.66 908.352 404.705 909.527 404.705C910.683 404.705 911.638 405.642 911.638 406.817C911.638 407.992 910.683 408.928 909.527 408.928Z" fill="#114A82"/>
<path d="M922.783 452.257C921.846 452.257 921.093 451.505 921.093 450.568C921.093 449.632 921.846 448.879 922.783 448.879C923.719 448.879 924.472 449.632 924.472 450.568C924.472 451.505 923.719 452.257 922.783 452.257Z" fill="#114A82"/>
<path d="M927.226 497.331C927.925 497.331 928.493 496.763 928.493 496.064C928.493 495.364 927.925 494.797 927.226 494.797C926.526 494.797 925.959 495.364 925.959 496.064C925.959 496.763 926.526 497.331 927.226 497.331Z" fill="#114A82"/>
<path d="M484.552 608.371C379.754 608.371 294.491 523.108 294.491 418.292C294.491 313.475 379.754 228.231 484.552 228.231C589.35 228.231 674.631 313.494 674.631 418.292C674.631 523.089 589.368 608.371 484.552 608.371ZM484.552 231.903C381.774 231.903 298.163 315.513 298.163 418.292C298.163 521.07 381.774 604.699 484.552 604.699C587.33 604.699 670.959 521.088 670.959 418.292C670.959 315.513 587.33 231.903 484.552 231.903Z" fill="#0B315E"/>
<path d="M484.552 577.288C396.884 577.288 325.574 505.96 325.574 418.31C325.574 330.642 396.902 259.332 484.552 259.332C572.22 259.332 643.529 330.66 643.529 418.31C643.548 505.96 572.22 577.288 484.552 577.288ZM484.552 271.89C403.824 271.89 338.151 337.563 338.151 418.292C338.151 499.02 403.824 564.693 484.552 564.693C565.28 564.693 630.953 499.02 630.953 418.292C630.953 337.563 565.28 271.89 484.552 271.89Z" fill="#01237A"/>
<path d="M484.552 546.186C414.032 546.186 356.657 488.812 356.657 418.292C356.657 347.772 414.032 290.397 484.552 290.397C555.072 290.397 612.446 347.772 612.446 418.292C612.446 488.812 555.072 546.186 484.552 546.186ZM484.552 294.069C416.051 294.069 360.329 349.791 360.329 418.292C360.329 486.792 416.051 542.514 484.552 542.514C553.052 542.514 608.774 486.792 608.774 418.292C608.774 349.791 553.052 294.069 484.552 294.069Z" fill="#0B315E"/>
<path d="M484.552 515.103C431.18 515.103 387.741 471.682 387.741 418.291C387.741 364.901 431.162 321.48 484.552 321.48C537.942 321.48 581.363 364.901 581.363 418.291C581.363 471.682 537.942 515.103 484.552 515.103ZM484.552 325.171C433.2 325.171 391.413 366.957 391.413 418.31C391.413 469.662 433.2 511.449 484.552 511.449C535.904 511.449 577.691 469.662 577.691 418.31C577.691 366.957 535.923 325.171 484.552 325.171Z" fill="#0B315E"/>
<path d="M484.552 484.02C448.31 484.02 418.842 454.534 418.842 418.291C418.842 382.049 448.328 352.582 484.552 352.582C520.794 352.582 550.28 382.068 550.28 418.291C550.28 454.534 520.794 484.02 484.552 484.02ZM484.552 356.254C450.348 356.254 422.514 384.087 422.514 418.291C422.514 452.496 450.348 480.348 484.552 480.348C518.756 480.348 546.608 452.514 546.608 418.291C546.608 384.069 518.775 356.254 484.552 356.254Z" fill="#0B315E"/>
<path d="M484.552 452.936C465.458 452.936 449.925 437.404 449.925 418.31C449.925 399.216 465.458 383.683 484.552 383.683C503.646 383.683 519.178 399.216 519.178 418.31C519.197 437.386 503.646 452.936 484.552 452.936ZM484.552 387.337C467.477 387.337 453.597 401.217 453.597 418.291C453.597 435.366 467.477 449.246 484.552 449.246C501.627 449.246 515.507 435.366 515.507 418.291C515.525 401.235 501.627 387.337 484.552 387.337Z" fill="#0B315E"/>
<path d="M1297.36 476.878L1326.28 447.961C1321.14 450.899 1316.38 454.405 1312.07 458.389L1307.79 462.667C1303.8 466.963 1300.3 471.737 1297.36 476.878Z" fill="#01237A"/>
<path d="M1288.73 499.864L1349.26 439.332C1347.59 439.662 1345.94 440.066 1344.31 440.507L1289.91 494.907C1289.45 496.541 1289.06 498.193 1288.73 499.864Z" fill="#01237A"/>
<path d="M1287.19 515.25C1287.19 515.415 1287.19 515.58 1287.19 515.745L1365.13 437.808C1364.96 437.808 1364.8 437.808 1364.63 437.808C1363.51 437.808 1362.39 437.845 1361.27 437.881L1287.26 511.89C1287.22 513.01 1287.19 514.111 1287.19 515.25Z" fill="#01237A"/>
<path d="M1288.4 528.891L1378.31 438.983C1377.22 438.799 1376.12 438.616 1375.04 438.469L1287.9 525.605C1288.03 526.724 1288.2 527.808 1288.4 528.891Z" fill="#01237A"/>
<path d="M1291.34 540.311L1389.71 441.939C1388.75 441.608 1387.8 441.315 1386.85 441.021L1290.44 537.428C1290.71 538.401 1291.01 539.356 1291.34 540.311Z" fill="#01237A"/>
<path d="M1295.62 550.39L1399.81 446.198C1398.96 445.776 1398.12 445.354 1397.26 444.968L1294.37 547.838C1294.77 548.701 1295.17 549.546 1295.62 550.39Z" fill="#01237A"/>
<path d="M1300.98 559.368L1408.77 451.578C1408.01 451.064 1407.26 450.55 1406.51 450.054L1299.47 557.092C1299.97 557.863 1300.46 558.615 1300.98 559.368Z" fill="#01237A"/>
<path d="M1307.35 567.355L1416.75 457.949C1416.09 457.343 1415.41 456.755 1414.73 456.186L1305.57 565.354C1306.15 566.033 1306.74 566.694 1307.35 567.355Z" fill="#01237A"/>
<path d="M1314.65 574.405L1423.8 465.256C1423.23 464.577 1422.65 463.897 1422.04 463.236L1312.63 572.642C1313.3 573.248 1313.98 573.836 1314.65 574.405Z" fill="#01237A"/>
<path d="M1322.92 580.5L1429.92 473.499C1429.42 472.728 1428.93 471.976 1428.39 471.241L1320.64 578.995C1321.39 579.509 1322.15 580.023 1322.92 580.5Z" fill="#01237A"/>
<path d="M1332.19 585.586L1434.98 482.789C1434.58 481.927 1434.18 481.082 1433.75 480.237L1329.64 584.356C1330.48 584.778 1331.33 585.182 1332.19 585.586Z" fill="#01237A"/>
<path d="M1342.62 589.515L1438.93 493.218C1438.64 492.245 1438.34 491.29 1438.03 490.354L1339.75 588.634C1340.69 588.928 1341.64 589.221 1342.62 589.515Z" fill="#01237A"/>
<path d="M1354.44 592.03L1441.43 505.042C1441.28 503.94 1441.12 502.857 1440.93 501.755L1351.17 591.516C1352.26 591.718 1353.34 591.883 1354.44 592.03Z" fill="#01237A"/>
<path d="M1364.65 592.71C1365.84 592.71 1367.03 592.673 1368.21 592.618L1442.02 518.811C1442.07 517.636 1442.11 516.443 1442.11 515.25C1442.11 515.158 1442.11 515.048 1442.11 514.956L1364.37 592.691C1364.45 592.691 1364.56 592.71 1364.65 592.71Z" fill="#01237A"/>
<path d="M1385.27 589.919L1439.32 535.868C1439.78 534.234 1440.18 532.563 1440.51 530.892L1380.27 591.131C1381.96 590.782 1383.63 590.378 1385.27 589.919Z" fill="#01237A"/>
<path d="M1431.66 554.099L1403.5 582.263C1415.16 575.488 1424.89 565.757 1431.66 554.099Z" fill="#01237A"/>
<path d="M415.189 902.238L445.593 871.834C440.195 874.918 435.183 878.609 430.648 882.795L426.15 887.293C421.964 891.846 418.273 896.84 415.189 902.238Z" fill="#0B315E"/>
<path d="M406.119 926.399L469.754 862.764C467.992 863.113 466.266 863.535 464.54 863.994L407.349 921.185C406.872 922.911 406.468 924.655 406.119 926.399Z" fill="#0B315E"/>
<path d="M404.503 942.574C404.503 942.74 404.503 942.923 404.503 943.088L486.425 861.167C486.26 861.167 486.076 861.167 485.911 861.167C484.736 861.167 483.542 861.204 482.386 861.24L404.577 939.049C404.54 940.224 404.503 941.399 404.503 942.574Z" fill="#0B315E"/>
<path d="M405.77 956.932L500.268 862.434C499.13 862.232 497.973 862.048 496.835 861.901L405.238 953.498C405.385 954.637 405.568 955.793 405.77 956.932Z" fill="#0B315E"/>
<path d="M408.855 968.921L512.257 865.518C511.266 865.169 510.256 864.857 509.246 864.563L407.9 965.91C408.194 966.919 408.524 967.929 408.855 968.921Z" fill="#0B315E"/>
<path d="M413.353 979.514L522.869 869.998C521.988 869.539 521.088 869.117 520.189 868.694L412.049 976.834C412.472 977.752 412.894 978.633 413.353 979.514Z" fill="#0B315E"/>
<path d="M419.008 988.951L532.306 875.653C531.517 875.102 530.727 874.569 529.919 874.055L417.41 986.564C417.924 987.39 418.457 988.18 419.008 988.951Z" fill="#0B315E"/>
<path d="M425.691 997.36L540.697 882.354C539.999 881.73 539.301 881.106 538.585 880.5L423.836 995.248C424.442 995.965 425.048 996.662 425.691 997.36Z" fill="#0B315E"/>
<path d="M433.365 1004.76L548.095 890.028C547.49 889.312 546.865 888.596 546.241 887.899L431.235 1002.9C431.951 1003.55 432.649 1004.15 433.365 1004.76Z" fill="#0B315E"/>
<path d="M442.049 1011.18L554.521 898.713C554.007 897.905 553.475 897.115 552.924 896.326L439.662 1009.59C440.452 1010.12 441.241 1010.65 442.049 1011.18Z" fill="#0B315E"/>
<path d="M451.798 1016.51L559.846 908.462C559.423 907.562 559.001 906.662 558.542 905.781L449.099 1015.22C449.999 1015.66 450.899 1016.11 451.798 1016.51Z" fill="#0B315E"/>
<path d="M462.759 1020.64L563.995 919.404C563.701 918.394 563.371 917.385 563.04 916.393L459.748 1019.69C460.721 1020.03 461.731 1020.35 462.759 1020.64Z" fill="#0B315E"/>
<path d="M475.189 1023.28L566.621 931.852C566.474 930.696 566.29 929.539 566.088 928.401L471.737 1022.75C472.894 1022.97 474.032 1023.14 475.189 1023.28Z" fill="#0B315E"/>
<path d="M485.911 1024C487.178 1024 488.426 1023.96 489.656 1023.91L567.226 946.338C567.282 945.09 567.318 943.841 567.318 942.593C567.318 942.483 567.318 942.391 567.318 942.281L485.599 1024C485.709 1024 485.819 1024 485.911 1024Z" fill="#0B315E"/>
<path d="M507.594 1021.08L564.417 964.257C564.895 962.531 565.317 960.787 565.684 959.025L502.361 1022.35C504.124 1021.98 505.868 1021.54 507.594 1021.08Z" fill="#0B315E"/>
<path d="M556.357 983.425L526.743 1013.04C539.007 1005.9 549.234 995.671 556.357 983.425Z" fill="#0B315E"/>
<path d="M644.742 55.3915L675.145 24.9877C669.748 28.0721 664.735 31.7624 660.201 35.9485L655.702 40.4466C651.516 44.9815 647.826 49.9937 644.742 55.3915Z" fill="#0B315E"/>
<path d="M635.672 79.553L699.307 15.9179C697.544 16.2668 695.819 16.6891 694.093 17.148L636.902 74.3389C636.443 76.0647 636.021 77.7905 635.672 79.553Z" fill="#0B315E"/>
<path d="M634.056 95.728C634.056 95.8933 634.056 96.0769 634.056 96.2421L715.996 14.3206C715.831 14.3206 715.647 14.3206 715.482 14.3206C714.289 14.3206 713.114 14.3573 711.957 14.3941L634.148 92.2029C634.093 93.378 634.056 94.553 634.056 95.728Z" fill="#0B315E"/>
<path d="M635.323 110.085L729.821 15.5875C728.683 15.3855 727.526 15.2019 726.388 15.055L634.791 106.652C634.938 107.79 635.121 108.947 635.323 110.085Z" fill="#0B315E"/>
<path d="M638.407 122.074L741.81 18.6719C740.818 18.3231 739.809 18.011 738.799 17.7172L637.453 119.063C637.765 120.073 638.077 121.083 638.407 122.074Z" fill="#0B315E"/>
<path d="M642.906 132.668L752.422 23.1517C751.541 22.7111 750.641 22.2705 749.741 21.8482L641.602 129.987C642.024 130.887 642.447 131.787 642.906 132.668Z" fill="#0B315E"/>
<path d="M648.56 142.105L761.859 28.8065C761.069 28.2557 760.28 27.7233 759.472 27.2092L646.963 139.718C647.477 140.526 648.01 141.315 648.56 142.105Z" fill="#0B315E"/>
<path d="M655.244 150.514L770.249 35.5078C769.552 34.8836 768.854 34.2594 768.138 33.6535L653.389 148.402C653.995 149.1 654.619 149.816 655.244 150.514Z" fill="#0B315E"/>
<path d="M662.936 157.913L777.667 43.1823C777.061 42.4662 776.437 41.7502 775.812 41.0525L660.806 156.058C661.504 156.683 662.202 157.307 662.936 157.913Z" fill="#0B315E"/>
<path d="M671.602 164.32L784.074 51.8481C783.56 51.0403 783.028 50.2508 782.477 49.4613L669.215 162.741C670.005 163.274 670.794 163.806 671.602 164.32Z" fill="#0B315E"/>
<path d="M681.351 169.663L789.399 61.6155C788.976 60.7158 788.554 59.8162 788.095 58.9349L678.652 168.378C679.552 168.818 680.451 169.241 681.351 169.663Z" fill="#0B315E"/>
<path d="M692.312 173.794L793.548 72.558C793.254 71.5482 792.924 70.5384 792.593 69.547L689.301 172.839C690.292 173.188 691.302 173.5 692.312 173.794Z" fill="#0B315E"/>
<path d="M704.76 176.438L796.192 85.0059C796.045 83.8492 795.861 82.6926 795.659 81.5543L701.308 175.905C702.447 176.107 703.603 176.291 704.76 176.438Z" fill="#0B315E"/>
<path d="M715.482 177.154C716.749 177.154 717.997 177.117 719.227 177.062L796.797 99.4918C796.853 98.2433 796.889 96.9949 796.889 95.7464C796.889 95.6362 796.889 95.5444 796.889 95.4343L715.17 177.154C715.262 177.135 715.372 177.154 715.482 177.154Z" fill="#0B315E"/>
<path d="M737.146 174.216L793.97 117.393C794.447 115.667 794.87 113.923 795.237 112.16L731.914 175.483C733.676 175.116 735.421 174.694 737.146 174.216Z" fill="#0B315E"/>
<path d="M785.91 136.56L756.296 166.175C768.56 159.051 778.786 148.825 785.91 136.56Z" fill="#0B315E"/>
<path d="M455.617 0V71.4747H527.092V0H455.617ZM517.141 61.5237H465.568V9.95102H517.141V61.5237Z" fill="#01237A"/>
<path d="M271.156 77.1479L271.119 112.289L301.56 94.7366L271.156 77.1479Z" fill="#FFC200"/>
<path d="M313.328 57.6131L313.273 131.86L377.606 94.7917L313.328 57.6131ZM323.371 75.0549L357.465 94.7734L323.353 114.437L323.371 75.0549Z" fill="#0B315E"/>
<path d="M451.266 821.712L537.63 821.785L494.503 746.969L451.266 821.712ZM471.553 810.016L494.485 770.378L517.361 810.053L471.553 810.016Z" fill="#0B315E"/>
<path d="M614.283 877.691C614.283 836.546 647.624 803.205 688.768 803.205C729.913 803.205 763.254 836.546 763.254 877.691H614.283Z" fill="#FFC200"/>
<path d="M257.258 306.223H98.1882L177.723 226.689L257.258 306.223Z" fill="#FFC200"/>
<path d="M156.756 955.059C156.756 868.492 86.5849 798.303 0 798.303V859.845C52.5825 859.845 95.214 902.476 95.214 955.059H156.756Z" fill="#01237A"/>
<path d="M1377.26 37.0685H1278.47V136.009H1377.26V37.0685Z" fill="#01237A"/>
<path d="M1349.13 65.2324H1306.59V107.827H1349.13V65.2324Z" fill="#114A82"/>
<defs>
<radialGradient id="paint0_radial_347_879" cx="0" cy="0" r="1" gradientUnits="userSpaceOnUse" gradientTransform="translate(772.836 542.355) scale(367.288 367.288)">
<stop/>
<stop offset="1" stop-color="white"/>
</radialGradient>
</defs>
</svg>
